<svg width="180" height="48" viewBox="0 0 180 48" fill="none" xmlns="http://www.w3.org/2000/svg">
<path fill-rule="evenodd" clip-rule="evenodd" d="M29.158 0.768834C26.9524 2.51992 26.1995 6.64285 27.6794 8.86604C28.3477 9.87029 28.721 10.0836 29.9676 10.175C31.2632 10.2704 31.6102 10.1302 32.6315 9.09945C34.3168 7.39851 35.0264 4.41718 34.242 2.33453C33.3676 0.0138813 31.02 -0.708938 29.158 0.768834ZM78.4062 5.54714C75.6391 6.0867 75.0363 11.8996 77.6082 13.2418C79.2844 14.1168 81.4606 13.7121 81.4606 12.5253C81.4606 11.9017 81.3889 11.8954 80.2525 12.418C77.5875 13.6433 75.8039 8.97974 78.2079 7.07117C78.7953 6.60506 79.3803 6.4504 80.0475 6.58494C81.349 6.84765 81.7741 6.10788 80.5842 5.65131C80.079 5.45745 79.558 5.32045 79.4261 5.34693C79.2942 5.37341 78.8352 5.46345 78.4062 5.54714ZM84.4261 5.78373C81.2269 7.21489 82.2065 13.7736 85.6195 13.7736C87.8821 13.7736 89.389 11.5995 89.0185 8.86992C88.6536 6.18274 86.6076 4.80808 84.4261 5.78373ZM56.6197 9.53624C56.6197 12.3901 56.7359 13.4297 57.0571 13.4547C58.6161 13.5765 60.3826 13.2785 60.9057 12.8057C61.73 12.0599 61.6799 10.4222 60.8077 9.60192C60.1772 9.0094 60.1576 8.88369 60.6328 8.48574C60.927 8.23927 61.1681 7.75021 61.1681 7.39957C61.1681 6.26396 60.179 5.65202 58.3443 5.65202H56.6197V9.53624ZM63.6543 9.27141C62.8625 11.2623 62.2152 13.0098 62.2163 13.1556C62.2194 13.751 63.3464 13.3682 63.5157 12.7143C63.663 12.1457 63.9929 12.008 65.2087 12.008C66.4116 12.008 66.7639 12.1517 66.9409 12.7143C67.0631 13.1027 67.4602 13.4205 67.8237 13.4205C68.4471 13.4205 68.4338 13.2881 67.5844 11.037C67.0896 9.72622 66.4522 7.97796 66.1677 7.15274C65.8833 6.32752 65.5254 5.65202 65.3721 5.65202C65.2189 5.65202 64.446 7.28057 63.6543 9.27141ZM69.2151 9.53624C69.2151 12.7534 69.3054 13.4205 69.7399 13.4205C70.1573 13.4205 70.2647 12.9056 70.2647 10.9056C70.2647 7.95289 70.3872 7.98008 72.7366 11.4589C73.5899 12.7227 74.4062 13.7605 74.5506 13.7651C74.6951 13.7697 74.8131 11.9462 74.8131 9.7128C74.8131 6.33847 74.7242 5.65202 74.2882 5.65202C73.7368 5.65202 73.6627 6.10859 73.7582 8.9183C73.7897 9.84063 73.6854 10.5889 73.5269 10.5804C73.3684 10.5719 72.4661 9.45962 71.5215 8.10861C70.5772 6.75761 69.672 5.65202 69.5097 5.65202C69.3477 5.65202 69.2151 7.39992 69.2151 9.53624ZM57.6694 7.59413C57.6694 8.57931 57.8062 8.83002 58.3443 8.83002C58.9173 8.83002 60.1185 7.9935 60.1185 7.59413C60.1185 7.19476 58.9173 6.35824 58.3443 6.35824C57.8062 6.35824 57.6694 6.60895 57.6694 7.59413ZM84.5608 7.03339C82.887 8.40099 83.7624 12.7143 85.7133 12.7143C86.9406 12.7143 87.7583 11.4438 87.7583 9.53624C87.7583 8.24138 87.5718 7.58248 87.0585 7.06446C86.1842 6.18204 85.6111 6.17462 84.5608 7.03339ZM18.9096 8.32189C16.1477 10.2742 16.4419 16.4752 19.3228 17.031C22.3831 17.6214 24.708 13.2842 23.2368 9.72975C22.4461 7.82012 20.5102 7.19017 18.9096 8.32189ZM64.7371 9.29683C64.1616 10.9028 64.1784 10.9487 65.3483 10.9487C66.3567 10.9487 66.3714 10.9229 66.0001 9.80108C65.4362 8.0952 65.201 8.00127 64.7371 9.29683ZM57.6694 11.1252C57.6694 12.5723 57.7453 12.7143 58.5192 12.7143C59.4481 12.7143 60.4683 11.8827 60.4683 11.1252C60.4683 10.3678 59.4481 9.53624 58.5192 9.53624C57.7453 9.53624 57.6694 9.6782 57.6694 11.1252ZM8.68352 15.2743C7.86377 16.631 7.7847 18.7094 8.49949 20.1042C10.2989 23.6162 14.1905 20.059 12.8925 16.0893C12.1483 13.8138 9.83635 13.3661 8.68352 15.2743ZM167.966 18.9943L164.38 19.095V29.8525V40.6101H165.955H167.529V35.8219V31.0333L168.841 31.1432C170.099 31.248 170.276 31.4373 173.127 35.7322L176.101 40.2114L177.954 40.4536C178.973 40.5864 179.891 40.6101 179.995 40.5059C180.098 40.4014 178.727 38.169 176.948 35.5443L173.714 30.7727L174.833 29.8229C176.216 28.6484 176.886 27.3797 177.075 25.5771C177.288 23.5534 176.772 22.0728 175.38 20.7083C173.828 19.1871 172.45 18.8686 167.966 18.9943ZM55.92 29.8402V40.6101H57.485H59.0503L59.1469 35.4017L59.2438 30.1933L63.0049 30.093L66.766 29.9927V28.5923V27.1918H62.9174H59.0688V24.5435V21.8952H64.3169H69.565V20.4827V19.0703H62.7425H55.92V29.8402ZM72.6029 29.3998C70.5471 35.0811 68.8652 39.9275 68.8652 40.1697C68.8652 40.4536 69.4026 40.6101 70.3767 40.6101H71.8878L72.7772 38.05L73.6662 35.49L77.8625 35.3911L82.0589 35.2926L82.844 37.5098C83.2757 38.7294 83.8796 39.9261 84.1861 40.1687C84.7854 40.6436 87.0533 40.7827 87.0666 40.3452C87.0711 40.1998 85.3785 35.3558 83.3055 29.581L79.5363 19.0819L77.9385 19.0759L76.3406 19.0703L72.6029 29.3998ZM89.1578 29.8402V40.6101H90.7259H92.2937L92.3878 32.4758L92.4815 24.3419L96.2584 28.9669L100.035 33.592L103.713 28.891C105.736 26.3059 107.553 24.1328 107.751 24.0626C107.949 23.9923 108.08 24.3101 108.042 24.7688C108.004 25.2275 107.991 28.9796 108.012 33.1065L108.051 40.6101H109.45H110.85V29.8402V19.0703H109.304H107.759L103.995 23.8373C101.925 26.4591 100.124 28.6043 99.9936 28.6043C99.8631 28.6043 98.1194 26.468 96.1188 23.8567L92.4815 19.1091L90.8197 19.0897L89.1578 19.0703V29.8402ZM114.698 29.8402V40.6101H116.273H117.847V29.8402V19.0703H116.273H114.698V29.8402ZM121.346 29.8402V40.6101H127.993H134.641V39.0211V37.4321H129.568H124.495V28.2512V19.0703H122.92H121.346V29.8402ZM137.79 29.8402V40.6101H139.364H140.939V29.8402V19.0703H139.364H137.79V29.8402ZM151.102 19.9078C150.929 20.3683 150.317 22.0763 149.743 23.7038C149.168 25.3309 147.582 29.7226 146.218 33.4627C144.854 37.2029 143.738 40.3502 143.738 40.4561C143.738 40.5621 144.47 40.6002 145.365 40.5412L146.993 40.4335L147.898 37.8735L148.803 35.3134H153.013H157.224L158.048 37.7559C158.908 40.3046 159.241 40.5949 161.319 40.6051C161.848 40.608 162.281 40.5585 162.281 40.4953C162.281 40.3555 155.428 21.3997 154.886 20.0413C154.546 19.1882 154.312 19.0703 152.958 19.0703C151.659 19.0703 151.368 19.2016 151.102 19.9078ZM33.2798 21.1561C30.8752 22.6798 29.7398 25.4715 27.7819 34.6746C25.2706 46.4781 25.2828 47.6723 27.9149 47.6723C29.0296 47.6723 29.4326 47.4887 29.9008 46.768C30.4693 45.8923 33.453 35.3681 34.2493 31.4292C34.6982 29.2088 35.4091 27.8981 36.1642 27.8981C36.8282 27.8981 37.9342 30.2741 40.3409 36.8727C41.3979 39.7697 42.6074 42.5109 43.0293 42.9639C44.0503 44.0607 45.5852 44.054 46.3017 42.9498C46.9612 41.9342 46.8555 41.3679 44.319 32.3119C42.3765 25.3758 41.5095 23.3228 39.8525 21.7348C38.9313 20.8521 38.4296 20.673 36.5837 20.5682C34.856 20.47 34.1695 20.5922 33.2798 21.1561ZM167.529 25.0732V28.2512H169.471C171.837 28.2512 173.234 27.576 173.82 26.1491C174.809 23.7398 172.844 21.8952 169.289 21.8952H167.529V25.0732ZM76.35 28.0947L74.9135 32.1354H77.837C79.4454 32.1354 80.7609 31.9956 80.7609 31.8243C80.7609 31.3504 78.3006 24.5777 78.027 24.2988C77.8951 24.1642 77.1404 25.8723 76.35 28.0947ZM151.605 27.6187C150.88 29.6174 150.213 31.4514 150.124 31.694C150.001 32.0256 150.709 32.1354 152.972 32.1354C154.628 32.1354 155.983 32.0785 155.983 32.0086C155.983 31.7879 153.179 24.2444 153.048 24.112C152.979 24.0421 152.329 25.6201 151.605 27.6187ZM4.5141 29.0093C3.46344 29.9973 0.333143 34.8423 0.0749379 35.8798C-0.0352716 36.3229 -0.0223286 36.8537 0.103275 37.0588C0.658871 37.966 1.75117 37.318 3.63663 34.9628C4.72368 33.6047 5.72641 32.5641 5.86461 32.6502C6.00281 32.7364 5.97902 33.9649 5.81143 35.3798C5.64384 36.7947 5.55357 38.6697 5.61025 39.5461C5.70332 40.9833 5.80618 41.1507 6.65637 41.2496C7.48486 41.3463 7.64265 41.1962 7.95789 40.0137C8.51733 37.9134 9.02255 33.9366 9.03024 31.5722C9.03549 29.9295 8.88575 29.2815 8.39733 28.8356C7.48346 28.0008 5.49199 28.0901 4.5141 29.0093Z" fill="white"/>
<path fill-rule="evenodd" clip-rule="evenodd" d="M36.2383 10.9792C34.4127 11.4132 32.1557 12.6106 25.5151 16.6678C15.2142 22.9613 14.1642 23.3409 7.21578 23.2855C4.5781 23.2643 2.256 23.3494 2.05517 23.4748C1.35578 23.9112 1.68886 25.0546 2.6636 25.5634C4.18379 26.3565 9.1796 26.9596 12.2515 26.7206C17.0391 26.348 23.228 23.9384 29.9791 19.8179C35.329 16.5531 38.3851 15.9235 44.9407 16.736C47.2372 17.0206 47.4891 16.986 48.177 16.2918C49.9207 14.5318 48.452 12.5442 44.4963 11.3111C42.0791 10.5576 38.5985 10.4177 36.2383 10.9792Z" fill="white"/>
<path fill-rule="evenodd" clip-rule="evenodd" d="M17.9589 27.6907C17.3816 27.9495 16.5573 28.547 16.1274 29.018C14.386 30.9255 9.38708 41.337 9.38708 43.056C9.38708 44.1962 9.96507 44.8477 10.9772 44.8477C11.9943 44.8477 12.4978 44.2039 14.7534 40.021C17.0164 35.8242 18.3179 33.6932 18.8018 33.3913C19.4791 32.969 19.8077 34.4824 19.8598 38.2671C19.9343 43.694 20.3951 47.0136 21.1512 47.5719C22.0384 48.2266 22.8288 48.132 23.5901 47.2799C24.2108 46.5853 24.251 45.9638 24.1765 38.225C24.0876 28.9993 24.003 28.6246 21.7914 27.6921C20.3342 27.0777 19.3259 27.0773 17.9589 27.6907Z" fill="white"/>
</svg>
