<svg width="100" height="100" viewBox="0 0 100 100" fill="none" xmlns="http://www.w3.org/2000/svg">
<path d="M62.0416 98.5583C31.3457 112.587 -16.3001 19.975 13.7041 4.32917L22.4832 0L37.0332 28.4042L28.3582 32.6792C19.2374 37.5708 38.2332 74.6792 47.5624 70.1542C47.9416 69.9833 56.1332 65.9583 56.1624 65.9417L70.8332 94.2542C70.7999 94.2708 62.5457 98.3292 62.0416 98.5583V98.5583ZM55.6332 42.6875L67.7874 46.3125C68.7166 43.2 68.4541 39.7333 66.7874 36.6583C65.1249 33.5792 62.3624 31.4625 59.2541 30.5375L55.6332 42.6875V42.6875ZM63.1499 17.4458C69.6124 19.3708 75.3416 23.7625 78.7999 30.1583C82.2624 36.5583 82.7999 43.7542 80.8749 50.2125L73.3957 47.9833C74.7499 43.4375 74.3666 38.375 71.9291 33.8708C69.4999 29.3667 65.4666 26.2792 60.9166 24.9292L63.1499 17.4458V17.4458ZM67.1082 4.16667C76.9624 7.10417 85.7041 13.8 90.9791 23.5667C96.2666 33.3292 97.0874 44.3083 94.1499 54.1667L86.4832 51.8833C88.8332 43.9875 88.1749 35.1917 83.9499 27.375C79.7166 19.5542 72.7166 14.1875 64.8207 11.8375L67.1082 4.16667V4.16667Z" fill="#120E27"/>
</svg>
