<svg width="100" height="100" viewBox="0 0 100 100" fill="none" xmlns="http://www.w3.org/2000/svg">
<path d="M0 25V75H100V25H0ZM91.6667 66.6667H8.33333V33.3333H91.6667V66.6667ZM29.95 49.8L29.0458 47.2208L26.3042 48.2625V45.3125H23.625V48.2542L20.9542 47.2167L20.05 49.7958L22.8042 50.725L21.0458 53.0542L23.2833 54.6875L24.9375 52.2458L26.6958 54.6833L28.8917 53.05L27.1333 50.725L29.95 49.8V49.8ZM46.6167 49.8L45.7125 47.2208L42.9708 48.2625V45.3125H40.2917V48.2542L37.6208 47.2167L36.7167 49.7958L39.4708 50.725L37.7125 53.0542L39.9458 54.6875L41.6042 52.2458L43.3625 54.6833L45.5583 53.05L43.8 50.725L46.6167 49.8V49.8ZM63.2833 49.8L62.3792 47.2208L59.6375 48.2625V45.3125H56.9583V48.2542L54.2875 47.2167L53.3833 49.7958L56.1375 50.725L54.3792 53.0542L56.6125 54.6875L58.2708 52.2458L60.0292 54.6833L62.225 53.05L60.4667 50.725L63.2833 49.8V49.8ZM83.3333 58.3333H70.8333V54.1667H83.3333V58.3333Z" fill="#120E27"/>
</svg>
