<svg width="100" height="100" viewBox="0 0 100 100" fill="none" xmlns="http://www.w3.org/2000/svg">
<g clip-path="url(#clip0_224_510)">
<path d="M25.0833 30.7875C26.7458 29.6 28.625 29.05 30.4667 29.05C34.4 29.05 38.1833 31.55 39.425 35.7125C37.8333 34.4875 35.9667 33.8917 34.0875 33.8917C32.1792 33.8917 30.2583 34.5042 28.5833 35.7C25.2542 38.075 23.7792 42.1208 25.0625 45.9542C19.8875 42.2458 19.8667 34.5083 25.0833 30.7875V30.7875ZM40.6708 83.9958C44.8125 85.3875 57.6333 88.9375 72.4833 100L100 80.375C92.8625 70.3667 94.8292 63.3667 87.7375 53.425C82.8958 46.6417 80.125 46.5333 75.0833 47.4583L77.5792 50.9583C79.0833 53.0708 75.8917 55.3333 74.3958 53.225L72.1708 50.1C70.3583 47.5625 66.8417 49.1458 63.6167 49.8875L66.6458 54.1333C68.1458 56.2375 64.9667 58.5125 63.4625 56.4L60.8417 52.725C58.9833 50.1167 55.35 51.8583 52.1125 52.6833L55.3167 57.175C56.8292 59.2917 53.6292 61.5458 52.1333 59.4417L39.1417 41.25C35.1083 35.5917 26.275 41.5958 30.45 47.4542L49.6375 74.3625C47.5792 73.6 43.9583 72.9083 41.5958 72.9083C34.2875 72.9083 31.475 80.9083 40.6708 83.9958V83.9958ZM26.9792 75H8.33333V16.6667H50V44.5333L58.3333 42.5708V8.33333C58.3333 3.73333 54.6042 0 50 0H8.33333C3.72917 0 8.91626e-07 3.73333 8.91626e-07 8.33333V86.1583C-0.00416578 95.3792 14.5958 100 29.1875 100C36.7375 100 44.2667 98.7542 49.7875 96.275C40.95 92.3333 23.2125 89.7083 26.9792 75Z" fill="#120E27"/>
</g>
<defs>
<clipPath id="clip0_224_510">
<rect width="100" height="100" fill="white"/>
</clipPath>
</defs>
</svg>
