<svg width="21" height="20" viewBox="0 0 21 20" fill="none" xmlns="http://www.w3.org/2000/svg">
<path d="M15.5 13.4001C14.8667 13.4001 14.3 13.6501 13.8667 14.0417L7.925 10.5834C7.96667 10.3917 8 10.2001 8 10.0001C8 9.80008 7.96667 9.60842 7.925 9.41675L13.8 5.99175C14.25 6.40841 14.8417 6.66675 15.5 6.66675C16.163 6.66675 16.7989 6.40336 17.2678 5.93452C17.7366 5.46567 18 4.82979 18 4.16675C18 3.50371 17.7366 2.86782 17.2678 2.39898C16.7989 1.93014 16.163 1.66675 15.5 1.66675C14.837 1.66675 14.2011 1.93014 13.7322 2.39898C13.2634 2.86782 13 3.50371 13 4.16675C13 4.36675 13.0333 4.55841 13.075 4.75008L7.2 8.17508C6.75 7.75842 6.15833 7.50008 5.5 7.50008C4.83696 7.50008 4.20107 7.76347 3.73223 8.23231C3.26339 8.70116 3 9.33704 3 10.0001C3 10.6631 3.26339 11.299 3.73223 11.7678C4.20107 12.2367 4.83696 12.5001 5.5 12.5001C6.15833 12.5001 6.75 12.2417 7.2 11.8251L13.1333 15.2834C13.0917 15.4584 13.0667 15.6417 13.0667 15.8334C13.0667 17.1751 14.1583 18.2584 15.5 18.2584C16.8417 18.2584 17.9333 17.1751 17.9333 15.8334C17.9333 15.1881 17.677 14.5691 17.2206 14.1128C16.7643 13.6564 16.1454 13.4001 15.5 13.4001V13.4001Z" fill="#5845C3"/>
</svg>
